<?xml version="1.0" standalone="no"?>
<!DOCTYPE svg PUBLIC "-//W3C//DTD SVG 20010904//EN"
 "http://www.w3.org/TR/2001/REC-SVG-20010904/DTD/svg10.dtd">
<svg version="1.0" xmlns="http://www.w3.org/2000/svg"
 width="900.000000pt" height="612.000000pt" viewBox="0 0 900.000000 612.000000"
 preserveAspectRatio="xMidYMid meet">
<metadata>
Created by potrace 1.10, written by Peter Selinger 2001-2011
</metadata>
<g transform="translate(0.000000,612.000000) scale(0.100000,-0.100000)"
fill="#000000" stroke="none">
<path d="M1093 6109 c1 -5 -15 -16 -36 -23 -48 -18 -64 -32 -88 -77 -23 -46
-24 -94 -4 -133 8 -15 15 -37 15 -48 0 -10 6 -31 13 -46 8 -15 24 -72 37 -127
13 -55 27 -104 32 -109 4 -6 8 -21 8 -35 0 -15 7 -39 15 -55 8 -15 15 -35 15
-44 0 -9 6 -34 14 -57 7 -22 20 -65 29 -95 39 -142 49 -177 59 -205 5 -16 13
-43 18 -60 4 -16 18 -66 30 -110 12 -44 25 -96 29 -115 4 -19 13 -45 19 -57 7
-12 12 -36 12 -53 0 -17 6 -41 14 -53 20 -31 30 -110 18 -134 -6 -11 -30 -28
-54 -38 -121 -51 -117 -48 -273 -159 -208 -148 -372 -307 -522 -506 -116 -152
-156 -218 -253 -415 -59 -121 -73 -156 -111 -275 -12 -36 -26 -76 -32 -90 -5
-14 -14 -45 -18 -70 -4 -25 -13 -70 -18 -100 -56 -294 -56 -707 0 -950 6 -25
14 -65 18 -90 4 -25 13 -55 19 -67 7 -12 12 -32 12 -45 0 -13 4 -28 9 -33 5
-6 14 -26 19 -45 34 -115 138 -343 201 -440 44 -67 57 -88 72 -117 7 -13 16
-23 21 -23 4 0 8 -5 8 -11 0 -11 41 -67 86 -119 245 -279 428 -435 684 -583
54 -31 167 -87 176 -87 6 0 58 -23 124 -54 14 -7 52 -21 85 -31 33 -9 78 -24
100 -31 23 -8 51 -14 63 -14 13 0 33 -5 45 -12 28 -15 59 -21 293 -58 39 -6
919 -10 2365 -10 1955 0 2326 2 2450 15 81 8 158 19 173 25 15 5 40 10 56 10
15 0 41 7 56 15 16 8 43 15 59 15 17 1 41 7 55 15 14 8 33 14 43 15 19 0 66
18 120 46 16 8 35 14 43 14 8 0 31 9 51 20 58 31 93 26 154 -22 62 -49 159
-101 244 -131 52 -19 82 -21 220 -21 142 0 168 2 228 23 37 13 70 28 73 32 3
5 11 9 19 9 25 0 132 69 190 122 173 157 268 387 252 604 -8 100 -23 184 -37
198 -5 5 -10 18 -10 28 0 26 -58 135 -107 200 -45 60 -53 88 -28 108 8 7 15
20 15 29 0 9 6 25 13 36 8 11 16 29 20 40 3 11 15 45 27 75 45 117 52 136 60
170 38 148 57 238 66 313 3 32 10 47 20 47 12 0 14 46 14 300 0 260 -2 300
-15 300 -8 0 -15 6 -15 13 0 13 -23 154 -39 244 -5 28 -14 61 -20 72 -6 11
-11 30 -11 43 0 13 -7 33 -15 44 -8 10 -15 28 -15 39 0 11 -7 33 -15 49 -8 15
-15 33 -15 38 0 13 -21 60 -83 188 -70 144 -150 276 -234 385 -94 121 -134
167 -222 255 -164 164 -381 322 -576 421 -33 16 -67 34 -75 38 -41 23 -243
101 -262 101 -8 0 -18 4 -24 10 -5 5 -30 14 -54 19 -25 6 -74 17 -110 26 -36
9 -111 22 -166 30 -56 8 -113 19 -128 25 -18 7 -589 10 -1730 10 l-1703 0 -59
31 c-32 17 -88 51 -125 75 -36 24 -70 44 -76 44 -6 0 -13 4 -15 8 -1 5 -15 15
-29 23 -25 13 -187 112 -247 151 -15 10 -34 21 -42 25 -8 3 -45 26 -81 49 -36
24 -84 52 -105 64 -21 12 -51 29 -65 38 -15 9 -82 51 -149 92 -67 41 -133 83
-148 92 -15 10 -36 22 -47 28 -23 12 -44 25 -100 61 -22 14 -47 29 -55 32 -8
4 -27 15 -42 25 -50 32 -269 167 -311 191 -23 13 -61 37 -85 52 -24 16 -45 29
-49 29 -3 0 -24 13 -47 28 -22 15 -48 31 -56 35 -8 4 -27 15 -42 25 -85 54
-297 180 -320 190 -16 6 -28 16 -28 22 0 5 -13 10 -30 10 -16 0 -29 -5 -27
-11z"/>
</g>
</svg>
