<?xml version="1.0" encoding="UTF-8"?>
<svg xmlns="http://www.w3.org/2000/svg" xmlns:xlink="http://www.w3.org/1999/xlink" width="4500" height="1500" viewBox="0 0 4500 1500">
<path fill="none" stroke-width="283.464" stroke-linecap="round" stroke-linejoin="round" stroke="rgb(19.993591%, 16.992188%, 16.992188%)" stroke-opacity="1" stroke-miterlimit="22.9256" d="M 5747.695312 14216.992188 C 7900.625 14216.992188 9645.898438 12982.1875 9645.898438 11458.984375 C 9645.898438 10541.015625 9011.835938 9727.890625 8036.835938 9226.5625 C 8064.453125 9027.851562 8067.304688 8796.210938 8017.8125 8541.640625 C 7857.304688 7716.132812 6630.507812 7268.984375 6630.507812 7268.984375 C 6630.507812 7268.984375 7563.554688 8115.429688 6959.570312 8837.03125 C 6578.125 8748.789062 6170.820312 8700.9375 5747.695312 8700.9375 C 3594.765625 8700.9375 1849.453125 9935.742188 1849.453125 11458.984375 C 1849.453125 12982.1875 3594.765625 14216.992188 5747.695312 14216.992188 Z M 5747.695312 14216.992188 " transform="matrix(0.1, 0, 0, -0.1, 0, 1500)"/>
<path fill="none" stroke-width="283.465" stroke-linecap="round" stroke-linejoin="round" stroke="rgb(19.993591%, 16.992188%, 16.992188%)" stroke-opacity="1" stroke-miterlimit="22.9256" d="M 3875.664062 6380.976562 L 7619.6875 6380.976562 C 8682.304688 6380.976562 9551.679688 5511.601562 9551.679688 4448.984375 C 9551.679688 3631.875 9037.578125 2929.101562 8316.875 2647.96875 L 8711.679688 1293.007812 L 6735.9375 2516.992188 L 3875.664062 2516.992188 C 2813.085938 2516.992188 1943.671875 3386.367188 1943.671875 4448.984375 C 1943.671875 5511.601562 2813.085938 6380.976562 3875.664062 6380.976562 Z M 3875.664062 6380.976562 " transform="matrix(0.1, 0, 0, -0.1, 0, 1500)"/>
<path fill="none" stroke-width="283.465" stroke-linecap="round" stroke-linejoin="round" stroke="rgb(19.993591%, 16.992188%, 16.992188%)" stroke-opacity="1" stroke-miterlimit="22.9256" d="M 21035.585938 10353.203125 L 21035.585938 10325.507812 C 20528.59375 10006.09375 20195.585938 9468.125 20195.585938 8858.28125 C 20195.585938 8734.140625 20209.492188 8613.007812 20235.703125 8496.09375 C 20036.015625 8572.460938 19814.804688 8614.921875 19581.914062 8614.921875 C 18827.109375 8614.921875 18194.296875 8168.945312 18023.085938 7568.164062 C 17753.398438 7983.710938 17239.101562 8266.914062 16646.601562 8275.3125 C 16054.101562 8266.914062 15539.882812 7983.710938 15270.117188 7568.164062 C 15098.984375 8168.945312 14466.09375 8614.921875 13711.40625 8614.921875 C 13478.515625 8614.921875 13257.1875 8572.460938 13057.5 8496.09375 C 13083.789062 8613.007812 13097.617188 8734.140625 13097.617188 8858.28125 C 13097.617188 9468.125 12764.6875 10006.09375 12257.695312 10325.507812 L 12257.695312 10353.203125 C 12696.484375 10678.398438 12977.617188 11178.007812 12977.617188 11738.28125 C 12977.617188 12041.289062 12895.390625 12326.601562 12750.390625 12576.09375 C 13014.101562 12413.59375 13337.617188 12317.8125 13687.382812 12317.8125 C 14442.109375 12317.8125 15075 12763.710938 15246.210938 13364.492188 C 15519.609375 12943.398438 16044.101562 12658.203125 16646.601562 12657.304688 C 17249.21875 12658.203125 17773.710938 12943.398438 18046.992188 13364.492188 C 18218.203125 12763.710938 18851.09375 12317.8125 19605.898438 12317.8125 C 19955.585938 12317.8125 20279.21875 12413.59375 20542.8125 12576.09375 C 20397.890625 12326.601562 20315.585938 12041.289062 20315.585938 11738.28125 C 20315.585938 11178.007812 20596.71875 10678.398438 21035.585938 10353.203125 Z M 21035.585938 10353.203125 " transform="matrix(0.1, 0, 0, -0.1, 0, 1500)"/>
<path fill-rule="evenodd" fill="rgb(19.993591%, 16.992188%, 16.992188%)" fill-opacity="1" stroke-width="5.6693" stroke-linecap="butt" stroke-linejoin="miter" stroke="rgb(19.993591%, 16.992188%, 16.992188%)" stroke-opacity="1" stroke-miterlimit="22.9256" d="M 12472.1875 13385.117188 L 12685.195312 13665.3125 L 13120.3125 13120.507812 Z M 12472.1875 13385.117188 " transform="matrix(0.1, 0, 0, -0.1, 0, 1500)"/>
<path fill-rule="evenodd" fill="rgb(19.993591%, 16.992188%, 16.992188%)" fill-opacity="1" stroke-width="5.6693" stroke-linecap="butt" stroke-linejoin="miter" stroke="rgb(19.993591%, 16.992188%, 16.992188%)" stroke-opacity="1" stroke-miterlimit="22.9256" d="M 12917.109375 13796.40625 L 13247.5 13917.8125 L 13320.585938 13224.414062 Z M 12917.109375 13796.40625 " transform="matrix(0.1, 0, 0, -0.1, 0, 1500)"/>
<path fill-rule="evenodd" fill="rgb(19.993591%, 16.992188%, 16.992188%)" fill-opacity="1" stroke-width="5.6693" stroke-linecap="butt" stroke-linejoin="miter" stroke="rgb(19.993591%, 16.992188%, 16.992188%)" stroke-opacity="1" stroke-miterlimit="22.9256" d="M 21646.914062 12504.296875 L 21431.992188 12783.085938 L 21000.585938 12235.3125 Z M 21646.914062 12504.296875 " transform="matrix(0.1, 0, 0, -0.1, 0, 1500)"/>
<path fill-rule="evenodd" fill="rgb(19.993591%, 16.992188%, 16.992188%)" fill-opacity="1" stroke-width="5.6693" stroke-linecap="butt" stroke-linejoin="miter" stroke="rgb(19.993591%, 16.992188%, 16.992188%)" stroke-opacity="1" stroke-miterlimit="22.9256" d="M 21265.3125 13123.90625 L 20934.101562 13243.007812 L 20865.703125 12549.101562 Z M 21265.3125 13123.90625 " transform="matrix(0.1, 0, 0, -0.1, 0, 1500)"/>
<path fill-rule="evenodd" fill="rgb(19.993591%, 16.992188%, 16.992188%)" fill-opacity="1" stroke-width="5.6693" stroke-linecap="butt" stroke-linejoin="miter" stroke="rgb(19.993591%, 16.992188%, 16.992188%)" stroke-opacity="1" stroke-miterlimit="22.9256" d="M 11798.710938 8644.492188 L 12011.71875 8364.21875 L 12446.796875 8909.0625 Z M 11798.710938 8644.492188 " transform="matrix(0.1, 0, 0, -0.1, 0, 1500)"/>
<path fill-rule="evenodd" fill="rgb(19.993591%, 16.992188%, 16.992188%)" fill-opacity="1" stroke-width="5.6693" stroke-linecap="butt" stroke-linejoin="miter" stroke="rgb(19.993591%, 16.992188%, 16.992188%)" stroke-opacity="1" stroke-miterlimit="22.9256" d="M 12144.101562 8222.382812 L 12474.492188 8101.015625 L 12547.617188 8794.453125 Z M 12144.101562 8222.382812 " transform="matrix(0.1, 0, 0, -0.1, 0, 1500)"/>
<path fill-rule="evenodd" fill="rgb(19.993591%, 16.992188%, 16.992188%)" fill-opacity="1" stroke-width="5.6693" stroke-linecap="butt" stroke-linejoin="miter" stroke="rgb(19.993591%, 16.992188%, 16.992188%)" stroke-opacity="1" stroke-miterlimit="22.9256" d="M 21584.609375 8662.1875 L 21482.109375 8325.390625 L 20884.882812 8685.3125 Z M 21584.609375 8662.1875 " transform="matrix(0.1, 0, 0, -0.1, 0, 1500)"/>
<path fill-rule="evenodd" fill="rgb(19.993591%, 16.992188%, 16.992188%)" fill-opacity="1" stroke-width="5.6693" stroke-linecap="butt" stroke-linejoin="miter" stroke="rgb(19.993591%, 16.992188%, 16.992188%)" stroke-opacity="1" stroke-miterlimit="22.9256" d="M 21328.007812 8101.484375 L 21060.3125 7872.96875 L 20751.015625 8497.890625 Z M 21328.007812 8101.484375 " transform="matrix(0.1, 0, 0, -0.1, 0, 1500)"/>
<path fill="none" stroke-width="283.465" stroke-linecap="round" stroke-linejoin="round" stroke="rgb(19.993591%, 16.992188%, 16.992188%)" stroke-opacity="1" stroke-miterlimit="22.9256" d="M 16107.5 5668.789062 C 15577.617188 5714.882812 14721.601562 5807.148438 13865.585938 5922.382812 C 13009.609375 6037.695312 12826.210938 5346.015625 12642.8125 4469.84375 C 12459.296875 3593.710938 12316.71875 2786.757812 12826.210938 2256.445312 C 13335.703125 1726.171875 15455.3125 2786.757812 16657.8125 2510.078125 C 17383.710938 2343.046875 19561.210938 1461.875 19981.914062 2518.828125 L 21264.6875 1227.226562 L 20584.609375 3579.21875 C 20672.890625 4112.734375 20680.195312 4652.617188 20591.289062 5000.15625 C 20367.109375 5876.289062 19348.085938 6152.96875 18125.195312 5922.382812 C 16902.382812 5691.835938 16107.5 5668.789062 16107.5 5668.789062 Z M 16107.5 5668.789062 " transform="matrix(0.1, 0, 0, -0.1, 0, 1500)"/>
<path fill="none" stroke-width="141.732" stroke-linecap="round" stroke-linejoin="round" stroke="rgb(19.993591%, 16.992188%, 16.992188%)" stroke-opacity="1" stroke-miterlimit="22.9256" d="M 20009.6875 1861.367188 C 19563.984375 1420.664062 18664.492188 1540.117188 18175.3125 1667.734375 C 17899.296875 1739.765625 17653.28125 1805.742188 17653.28125 1805.742188 " transform="matrix(0.1, 0, 0, -0.1, 0, 1500)"/>
<path fill="none" stroke-width="141.732" stroke-linecap="round" stroke-linejoin="round" stroke="rgb(19.993591%, 16.992188%, 16.992188%)" stroke-opacity="1" stroke-miterlimit="22.9256" d="M 18282.695312 6411.25 C 18282.695312 6411.25 19206.71875 6471.25 19536.71875 6435.234375 C 19866.71875 6399.257812 20280.703125 6243.242188 20472.695312 6057.265625 C 20664.6875 5871.25 20898.710938 5505.273438 20952.695312 5223.242188 C 21006.71875 4941.25 21012.695312 4485.273438 20988.710938 4257.265625 C 20964.6875 4029.257812 20946.71875 3939.257812 20946.71875 3939.257812 " transform="matrix(0.1, 0, 0, -0.1, 0, 1500)"/>
<path fill="none" stroke-width="141.732" stroke-linecap="round" stroke-linejoin="round" stroke="rgb(19.993591%, 16.992188%, 16.992188%)" stroke-opacity="1" stroke-miterlimit="22.9256" d="M 15528.710938 6177.265625 C 15528.710938 6177.265625 15840.703125 6117.265625 16152.695312 6123.28125 C 16464.6875 6129.257812 17148.710938 6237.265625 17148.710938 6237.265625 " transform="matrix(0.1, 0, 0, -0.1, 0, 1500)"/>
<path fill="none" stroke-width="141.732" stroke-linecap="round" stroke-linejoin="round" stroke="rgb(19.993591%, 16.992188%, 16.992188%)" stroke-opacity="1" stroke-miterlimit="22.9256" d="M 12066.71875 3885.234375 C 11823.007812 2689.414062 12293.085938 1489.414062 13656.71875 1671.210938 C 14376.71875 1767.226562 15060.703125 2031.210938 15480.703125 2091.210938 " transform="matrix(0.1, 0, 0, -0.1, 0, 1500)"/>
<path fill="none" stroke-width="141.732" stroke-linecap="round" stroke-linejoin="round" stroke="rgb(19.993591%, 16.992188%, 16.992188%)" stroke-opacity="1" stroke-miterlimit="22.9256" d="M 12408.710938 5385.234375 C 12408.710938 5385.234375 12624.609375 6033.242188 12924.6875 6243.242188 C 13224.6875 6453.242188 13644.6875 6429.257812 13866.71875 6375.234375 C 14088.710938 6321.25 14988.710938 6213.242188 14988.710938 6213.242188 " transform="matrix(0.1, 0, 0, -0.1, 0, 1500)"/>
<path fill="none" stroke-width="141.732" stroke-linecap="round" stroke-linejoin="round" stroke="rgb(19.993591%, 16.992188%, 16.992188%)" stroke-opacity="1" stroke-miterlimit="22.9256" d="M 21002.5 3407.617188 L 21440.507812 1913.632812 " transform="matrix(0.1, 0, 0, -0.1, 0, 1500)"/>
<path fill="none" stroke-width="141.732" stroke-linecap="round" stroke-linejoin="round" stroke="rgb(19.993591%, 16.992188%, 16.992188%)" stroke-opacity="1" stroke-miterlimit="22.9256" d="M 15918.710938 2127.304688 C 15918.710938 2127.304688 16092.695312 2205.273438 16530.703125 2121.289062 C 16968.710938 2037.304688 17316.71875 1899.296875 17316.71875 1899.296875 " transform="matrix(0.1, 0, 0, -0.1, 0, 1500)"/>
<path fill="none" stroke-width="397.355" stroke-linecap="round" stroke-linejoin="round" stroke="rgb(19.993591%, 16.992188%, 16.992188%)" stroke-opacity="1" stroke-miterlimit="22.9256" d="M 38445.204567 -8426.785128 L 48650.283308 -16903.10412 L 44864.699395 -19116.388029 L 43850.210746 -18273.691316 C 43627.618675 -18513.518807 43294.28376 -18756.999185 42840.27368 -18796.393196 C 41906.8017 -18877.270869 41052.669346 -18288.702084 41052.669346 -18288.702084 C 41052.669346 -18288.702084 42833.408768 -18641.091962 42866.420239 -17456.706634 L 34659.535909 -10639.998648 Z M 38445.204567 -8426.785128 " transform="matrix(0.0541047, -0.0453928, -0.0458513, -0.0546512, 0, 1500)"/>
<path fill="none" stroke-width="283.499" stroke-linecap="round" stroke-linejoin="round" stroke="rgb(19.993591%, 16.992188%, 16.992188%)" stroke-opacity="1" stroke-miterlimit="22.9256" d="M 26417.109456 6343.988177 C 26716.191665 6343.988177 27002.514395 6291.867531 27266.615999 6196.915453 C 27680.494268 6519.006273 28209.796755 6712.291859 28786.603768 6712.291859 C 29411.190125 6712.291859 29979.98811 6485.658388 30407.018458 6114.284213 C 30753.408893 6298.513788 31152.682465 6403.687887 31577.985376 6403.687887 C 32903.79349 6403.687887 33978.612819 5382.651824 33978.612819 4123.166721 C 33978.612819 3489.751239 33706.698487 2916.735073 33267.811637 2503.462272 L 33930.283835 923.246694 L 32511.194108 2021.394884 C 32224.282479 1906.270833 31908.985915 1842.645555 31577.985376 1842.645555 C 30953.399019 1842.645555 30384.601034 2069.279026 29957.492166 2440.653202 C 29611.101731 2256.423627 29211.788899 2151.249527 28786.603768 2151.249527 C 28487.482298 2151.249527 28201.198829 2203.370173 27937.097224 2298.322252 C 27523.218956 1976.270298 26993.916468 1782.945845 26417.109456 1782.945845 C 25091.301342 1782.945845 24016.482013 2803.981909 24016.482013 4063.467011 C 24016.482013 5322.952113 25091.301342 6343.988177 26417.109456 6343.988177 Z M 26417.109456 6343.988177 " transform="matrix(0.0994971, 0, 0, -0.100503, 0, 1500)"/>
<path fill="none" stroke-width="283.465" stroke-linecap="round" stroke-linejoin="round" stroke="rgb(19.993591%, 16.992188%, 16.992188%)" stroke-opacity="1" stroke-miterlimit="22.9256" d="M 26619.6875 5871.914062 C 26619.6875 5871.914062 25659.6875 6111.875 24939.6875 5379.882812 C 24219.6875 4647.890625 24531.71875 3699.882812 24531.71875 3699.882812 " transform="matrix(0.1, 0, 0, -0.1, 0, 1500)"/>
<path fill="none" stroke-width="283.464" stroke-linecap="round" stroke-linejoin="round" stroke="rgb(19.993591%, 16.992188%, 16.992188%)" stroke-opacity="1" stroke-miterlimit="22.9256" d="M 36869.882812 6302.460938 L 38123.789062 5663.945312 L 38376.914062 6844.609375 L 39443.90625 5880.664062 L 40184.609375 6890.976562 L 40708.984375 5740 L 41748.59375 6346.601562 L 41667.890625 5227.96875 L 42423.203125 5493.945312 L 42071.289062 4636.210938 L 43150.507812 4427.773438 L 42320.117188 3563.671875 L 43108.90625 2887.851562 L 41851.992188 2476.289062 L 42127.617188 1433.242188 L 40940.703125 1784.492188 L 40760.78125 867.617188 L 39854.101562 1464.960938 L 39176.210938 783.007812 L 38504.882812 1526.835938 L 37557.1875 989.921875 L 37352.382812 2025.78125 L 36354.492188 1819.648438 L 36611.40625 2828.28125 L 35699.6875 2946.015625 L 36389.882812 3900.195312 L 35716.992188 4906.992188 L 36853.203125 4945.585938 Z M 36869.882812 6302.460938 " transform="matrix(0.1, 0, 0, -0.1, 0, 1500)"/>
<path fill="none" stroke-width="270.709" stroke-linecap="round" stroke-linejoin="round" stroke="rgb(19.993591%, 16.992188%, 16.992188%)" stroke-opacity="1" stroke-miterlimit="22.9256" d="M -14378.096209 35166.88184 L -14378.096209 40434.193908 L -9739.275986 40434.193908 L -9739.275986 39988.887675 L -8170.428446 40019.216398 L -9739.275986 38992.29255 L -9739.275986 35166.88184 Z M -14378.096209 35166.88184 " transform="matrix(0, 0.0952879, 0.104712, 0, 0, 1500)"/>
</svg>
